# AST/ASF file generated using VICON BodyLanguage
# -----------------------------------------------
:version 1.10
:name VICON
:units
  mass 1.0
  length 0.45
  angle deg
:documentation
   .ast/.asf automatically generated from VICON data using
   VICON BodyBuilder and BodyLanguage model FoxedUp or BRILLIANT.MOD
:root
   order TX TY TZ RX RY RZ
   axis XYZ
   position 0 0 0  
   orientation 0 0 0 
:bonedata
  begin
     id 1 
     name lhipjoint
     direction 0.650112 -0.723553 0.232005 
     length 2.45805 
     axis 0 0 0  XYZ
  end
  begin
     id 2 
     name lfemur
     direction 0.34202 -0.939693 0  
     length 7.00073  
     axis 0 0 20  XYZ
    dof rx ry rz
    limits (-160.0 20.0)
           (-70.0 70.0)
           (-60.0 70.0)
  end
  begin
     id 3 
     name ltibia
     direction 0.34202 -0.939693 0   
     length 7.8748   
     axis 0 0 20   XYZ
    dof rx
    limits (-10.0 170.0)
  end
  begin
     id 4 
     name lfoot
     direction 0.0542825 -0.14914 0.987325   
     length 1.75978   
     axis -90 7.62852e-016 20   XYZ
    dof rx rz
    limits (-45.0 90.0)
           (-70.0 20.0)
  end
  begin
     id 5 
     name ltoes
     direction 1.53509e-011 -4.21906e-011 1   
     length 0.893912   
     axis -90 7.62852e-016 20   XYZ
    dof rx
    limits (-90.0 20.0)
  end
  begin
     id 6 
     name rhipjoint
     direction -0.637897 -0.733345 0.235145   
     length 2.42522  
     axis 0 0 0  XYZ 
  end
  begin
     id 7 
     name rfemur
     direction -0.34202 -0.939693 0   
     length 7.02549   
     axis 0 0 -20   XYZ
    dof rx ry rz
    limits (-160.0 20.0)
           (-70.0 70.0)
           (-70.0 60.0)
  end
  begin
     id 8 
     name rtibia
     direction -0.34202 -0.939693 0   
     length 7.71512   
     axis 0 0 -20   XYZ
    dof rx
    limits (-10.0 170.0)
 end
 begin
     id 9 
     name rfoot
     direction -0.0822618 -0.226012 0.970645   
     length 1.90014  
     axis -90 -7.62852e-016 -20   XYZ
    dof rx rz
    limits (-45.0 90.0)
           (-20.0 70.0)
  end
  begin
     id 10 
     name rtoes
     direction -1.53542e-011 -4.21872e-011 1   
     length 0.957341   
     axis -90 -7.62852e-016 -20   XYZ
    dof rx
    limits (-90.0 20.0)
  end
  begin
     id 11 
     name lowerback
     direction -0.0022947 0.999774 -0.0211557   
     length 1.89909   
     axis 0 0 0   XYZ
    dof rx ry rz
    limits (-20.0 45.0)
           (-30.0 30.0)
           (-30.0 30.0)
  end
  begin
     id 12 
     name upperback
     direction 0.0107737 0.998635 0.0511027   
     length 1.8853   
     axis 0 0 0   XYZ
    dof rx ry rz
    limits (-20.0 45.0)
           (-30.0 30.0)
           (-30.0 30.0)
  end
  begin
     id 13 
     name thorax
     direction 0.011824 0.998136 0.0598754   
     length 1.88911   
     axis 0 0 0   XYZ
    dof rx ry rz
    limits (-20.0 45.0)
           (-30.0 30.0)
           (-30.0 30.0)
  end
  begin
     id 14 
     name lowerneck
     direction -0.0685355 0.990319 0.120714   
     length 1.91222   
     axis 0 0 0   XYZ
    dof rx ry rz
    limits (-20.0 45.0)
           (-30.0 30.0)
           (-30.0 30.0)
  end
  begin
     id 15 
     name upperneck
     direction 0.0886204 0.955665 -0.280805   
     length 1.92526   
     axis 0 0 0   XYZ
    dof rx ry rz
    limits (-20.0 45.0)
           (-30.0 30.0)
           (-30.0 30.0)
  end
  begin
     id 16
     name head
     direction 0.0233423 0.993502 -0.111393  
     length 1.96056  
     axis 0 0 0   XYZ
    dof rx ry rz
    limits (-20.0 45.0)
           (-30.0 30.0)
           (-30.0 30.0)
  end
  begin
     id 17 
     name lclavicle
     direction 0.941873 0.32922 0.0670041  
     length 3.31705  
     axis 0 0 0   XYZ
    dof ry rz
    limits (-20.0 10.0)
           (0.0 20.0)
  end
  begin
     id 18 
     name lhumerus
     direction 1 -4.4898e-011 3.38707e-028   
     length 5.29277   
     axis 180 -30 -90   XYZ
    dof rx ry rz
    limits (-60.0 90.0)
           (-90.0 90.0)
           (-90.0 90.0)
  end
  begin
     id 19
     name lradius
     direction 1 -4.48952e-011 1.63213e-028   
     length 2.85226   
     axis 180 -30 -90   XYZ
    dof rx
    limits (-10.0 170.0)
  end
  begin
     id 20
     name lwrist
     direction 1 -4.49001e-011 1.27856e-027   
     length 1.42613   
     axis -1.61767e-015 90 90   XYZ
    dof ry
    limits (-180.0 0.0)
 end
  begin
     id 21 
     name lhand
     direction 1 -4.48976e-011 2.55931e-027   
     length 0.602097   
     axis -1.63363e-015 90 90   XYZ
    dof rx rz
    limits (-90.0 90.0)
           (-45.0 45.0)
  end
  begin
     id 22 
     name lfingers
     direction 1 -4.48986e-011 5.11684e-027   
     length 0.485426   
     axis -3.26723e-015 90 90   XYZ
    dof rx
    limits (0.0 90.0)
  end
  begin
     id 23
     name lthumb
     direction 0.707107 -6.34915e-011 0.707107   
     length 0.696978   
     axis -90 45 -2.25915e-014   XYZ
    dof rx rz
    limits (-45.0 45.0)
           (-45.0 45.0)
  end
  begin
     id 24 
     name rclavicle
     direction -0.939974 0.327078 0.0973096   
     length 3.10337  
     axis 0 0 0   XYZ 
    dof ry rz
    limits (-10.0 20.0)
           (-20.0 0.0)
  end
  begin
     id 25 
     name rhumerus
     direction -1 -4.48975e-011 1.83745e-027  
     length 5.13304   
     axis 180 30 90   XYZ
    dof rx ry rz
    limits (-90.0 60.0)
           (-90.0 90.0)
           (-90.0 90.0)
  end
  begin
     id 26 
     name rradius
     direction -1 -4.48977e-011 7.1775e-029   
     length 2.74305   
     axis 180 30 90   XYZ
    dof rx
    limits (-10.0 170.0)
  end
  begin
     id 27 
     name rwrist
     direction -1 -4.48977e-011 1.27963e-027   
     length 1.37152   
     axis -1.61767e-015 -90 -90   XYZ
    dof ry
    limits (-180.0 0.0)
  end
  begin
     id 28
     name rhand
     direction -1 -4.4888e-011 2.56782e-027   
     length 0.767976   
     axis -1.63363e-015 -90 -90   XYZ
    dof rx rz
    limits (-90.0 90.0)
           (-45.0 45.0)
  end
  begin
     id 29
     name rfingers
     direction -1 -4.48947e-011 5.12384e-027   
     length 0.619162   
     axis -3.26723e-015 -90 -90   XYZ
    dof rx
    limits (0.0 90.0)
  end
  begin
     id 30
     name rthumb
     direction -0.707107 -6.34857e-011 0.707107   
     length 0.888997   
     axis -90 -45 2.25915e-014   XYZ
    dof rx rz
    limits (-45.0 45.0)
           (-45.0 45.0)
  end
:hierarchy
  begin
    root lhipjoint rhipjoint lowerback
    lhipjoint lfemur
    lfemur ltibia
    ltibia lfoot
    lfoot ltoes
    rhipjoint rfemur
    rfemur rtibia
    rtibia rfoot
    rfoot rtoes
    lowerback upperback
    upperback thorax
    thorax lowerneck lclavicle rclavicle
    lowerneck upperneck
    upperneck head
    lclavicle lhumerus
    lhumerus lradius
    lradius lwrist
    lwrist lhand lthumb
    lhand lfingers
    rclavicle rhumerus
    rhumerus rradius
    rradius rwrist
    rwrist rhand rthumb
    rhand rfingers
  end

#!OML:ASF F:\VICON\USERDATA\INSTALL\rory3\rory3.ASF
:FULLY-SPECIFIED
:DEGREES
1471
root -0.29848 16.4142 -2.40714 36.1271 -1.7806 -4.8494
lowerback 20.2519 -0.560786 -6.1954
upperback 1.62446 -2.45887 -3.37168
thorax -9.48314 -0.979045 0.515328
lowerneck -7.13445 -9.22964 -17.9357
upperneck -10.8377 -10.3745 33.3842
head 1.48242 -5.29284 13.5825
rclavicle -1.59028e-015 -3.18055e-015
rhumerus 35.6742 19.2912 -70.5776
rradius 96.5925
rwrist 29.5756
rhand 23.3014 4.27171
rfingers 7.12502
rthumb 47.5972 -18.1269
lclavicle -1.59028e-015 -3.18055e-015
lhumerus 28.858 -7.43595 84.4118
lradius 102.748
lwrist -15.4232
lhand 18.2999 34.4387
lfingers 7.12502
lthumb 42.9481 58.703
rfemur -64.1631 6.16871 20.869
rtibia 41.0014
rfoot -14.9082 -2.2564
rtoes -19.2512
lfemur -65.9788 -1.52702 -5.13787
ltibia 47.1973
lfoot -15.9952 6.99067
ltoes -27.9308
1472
root -0.30177 16.4101 -2.41707 36.0771 -1.77698 -4.79444
lowerback 20.1954 -0.475953 -6.36692
upperback 1.74448 -2.36283 -3.27929
thorax -9.31171 -0.931171 0.68599
lowerneck -7.22294 -9.29361 -17.9773
upperneck -10.9644 -10.4258 33.3737
head 1.47992 -5.31644 13.5771
rclavicle 0 3.18055e-015
rhumerus 35.9876 19.1337 -70.3221
rradius 96.6465
rwrist 29.4491
rhand 23.2854 3.91105
rfingers 7.12502
rthumb 47.5825 -18.4942
lclavicle 0 3.18055e-015
lhumerus 29.3156 -7.2821 84.6095
lradius 102.447
lwrist -15.7554
lhand 18.1156 34.0946
lfingers 7.12502
lthumb 42.7758 58.4193
rfemur -64.2288 6.02542 20.9397
rtibia 41.128
rfoot -15.0042 -2.1644
rtoes -19.7612
lfemur -66.0182 -1.52947 -5.20343
ltibia 47.2865
lfoot -15.9626 6.95094
ltoes -28.1865
1473
root -0.306557 16.4016 -2.42802 36.0581 -1.79338 -4.7134
lowerback 20.1647 -0.410456 -6.54238
upperback 1.80124 -2.30485 -3.23681
thorax -9.22591 -0.899192 0.815038
lowerneck -7.25988 -9.32084 -17.949
upperneck -11.0405 -10.4449 33.3719
head 1.46927 -5.32795 13.5675
rclavicle -7.95139e-015 -9.54166e-015
rhumerus 36.2228 18.9514 -70.3329
rradius 96.6808
rwrist 29.5197
rhand 23.3847 3.74335
rfingers 7.12502
rthumb 47.6741 -18.6201
lclavicle -7.95139e-015 -9.54166e-015
lhumerus 29.6185 -7.23612 84.4374
lradius 101.982
lwrist -15.9455
lhand 17.5925 33.6927
lfingers 7.12502
lthumb 42.2861 58.1861
rfemur -64.3865 5.87741 20.989
rtibia 41.3326
rfoot -15.1196 -2.0869
rtoes -20.4227
lfemur -66.1275 -1.5056 -5.30634
ltibia 47.4214
lfoot -15.9657 6.90743
ltoes -28.4765
1474
root -0.310227 16.3866 -2.43845 36.0567 -1.82182 -4.68231
lowerback 20.1782 -0.34867 -6.62555
upperback 1.79363 -2.24191 -3.20887
thorax -9.2411 -0.865098 0.875581
lowerneck -7.20538 -9.31665 -17.9087
upperneck -11.1112 -10.4308 33.3566
head 1.43238 -5.32976 13.5593
rclavicle 9.54166e-015 4.45278e-014
rhumerus 36.3756 18.7638 -70.5294
rradius 96.6774
rwrist 29.6705
rhand 23.4438 3.68428
rfingers 7.12502
rthumb 47.7287 -18.6541
lclavicle 9.54166e-015 4.45278e-014
lhumerus 29.6991 -7.37962 83.79
lradius 101.639
lwrist -15.9457
lhand 16.7743 33.3507
lfingers 7.12502
lthumb 41.5191 58.0999
rfemur -64.5631 5.7673 21.0587
rtibia 41.609
rfoot -15.197 -1.94359
rtoes -19.8349
lfemur -66.2765 -1.45121 -5.35944
ltibia 47.6001
lfoot -16.0467 6.746
ltoes -27.7586
1475
root -0.310788 16.3719 -2.44774 36.0395 -1.87621 -4.63586
lowerback 20.2251 -0.32734 -6.48957
upperback 1.77502 -2.20401 -3.34465
thorax -9.30121 -0.853735 0.640636
lowerneck -7.09981 -9.29697 -17.7195
upperneck -11.161 -10.413 33.3634
head 1.38334 -5.3387 13.5326
rclavicle 1.74931e-014 1.43125e-014
rhumerus 36.467 18.4858 -70.9422
rradius 96.6548
rwrist 29.8007
rhand 23.4447 3.4357
rfingers 7.12502
rthumb 47.7295 -18.9023
lclavicle 1.74931e-014 1.43125e-014
lhumerus 29.9096 -7.5249 83.221
lradius 101.412
lwrist -16.019
lhand 16.2838 33.1097
lfingers 7.12502
lthumb 41.0587 58.0074
rfemur -64.743 5.6737 21.0786
rtibia 41.9307
rfoot -15.2982 -1.77788
rtoes -18.9934
lfemur -66.4171 -1.42273 -5.43978
ltibia 47.8269
lfoot -16.1319 6.61998
ltoes -27.0801
1476
root -0.311288 16.3571 -2.45706 36.0272 -1.92616 -4.55515
lowerback 20.2584 -0.316939 -6.41578
upperback 1.76707 -2.18942 -3.45645
thorax -9.33703 -0.851245 0.472981
lowerneck -7.10954 -9.30793 -17.547
upperneck -11.1343 -10.4417 33.3397
head 1.38577 -5.35627 13.4825
rclavicle 3.33958e-014 -4.77083e-015
rhumerus 36.5622 18.2607 -71.2839
rradius 96.6894
rwrist 29.9066
rhand 23.4929 3.27345
rfingers 7.12502
rthumb 47.774 -19.0441
lclavicle 3.33958e-014 -4.77083e-015
lhumerus 30.3135 -7.42429 83.1522
lradius 101.526
lwrist -16.3582
lhand 16.7198 33.1108
lfingers 7.12502
lthumb 41.4679 57.8766
rfemur -64.9718 5.58305 21.0416
rtibia 42.2857
rfoot -15.4118 -1.69559
rtoes -18.7395
lfemur -66.5839 -1.42314 -5.54422
ltibia 48.0859
lfoot -16.2438 6.61364
ltoes -27.2865
1477
root -0.311609 16.342 -2.4666 35.9709 -1.92443 -4.56541
lowerback 20.2898 -0.326029 -6.4039
upperback 1.79791 -2.19557 -3.42114
thorax -9.31842 -0.8547 0.507198
lowerneck -7.32888 -9.30775 -17.5772
upperneck -10.9791 -10.4466 33.3633
head 1.47291 -5.33188 13.4841
rclavicle -7.95139e-015 7.95139e-015
rhumerus 36.7373 18.2228 -71.4726
rradius 96.7501
rwrist 30.0266
rhand 23.3661 3.14886
rfingers 7.12502
rthumb 47.657 -19.2224
lclavicle -7.95139e-015 7.95139e-015
lhumerus 30.8092 -7.04783 83.4038
lradius 101.81
lwrist -16.8198
lhand 17.7326 33.4846
lfingers 7.12502
lthumb 42.4173 57.9333
rfemur -65.1513 5.5173 21.1288
rtibia 42.6641
rfoot -15.5589 -1.68654
rtoes -18.8503
lfemur -66.7384 -1.40098 -5.53994
ltibia 48.3724
lfoot -16.3654 6.53103
ltoes -26.6398
1478
root -0.310264 16.3244 -2.47586 35.8298 -1.96532 -4.50476
lowerback 20.4168 -0.298755 -6.46652
upperback 1.80713 -2.18269 -3.39734
thorax -9.37518 -0.843944 0.566784
lowerneck -7.36683 -9.29626 -17.6303
upperneck -10.9081 -10.4368 33.3992
head 1.50371 -5.31864 13.5079
rclavicle -9.54166e-015 -3.02153e-014
rhumerus 36.7085 18.1575 -71.6929
rradius 96.8835
rwrist 30.1229
rhand 23.1769 2.99725
rfingers 7.12502
rthumb 47.4823 -19.4535
lclavicle -9.54166e-015 -3.02153e-014
lhumerus 31.1253 -6.83094 83.4896
lradius 101.938
lwrist -17.0924
lhand 18.2069 33.7521
lfingers 7.12502
lthumb 42.8612 58.0469
rfemur -65.2617 5.40328 21.1641
rtibia 43.0687
rfoot -15.6932 -1.64826
rtoes -18.9437
lfemur -66.8232 -1.41561 -5.64545
ltibia 48.6964
lfoot -16.4167 6.51662
ltoes -26.4324
1479
root -0.309116 16.3054 -2.4844 35.7054 -2.05959 -4.38841
lowerback 20.4811 -0.235561 -6.61197
upperback 1.80007 -2.13783 -3.37873
thorax -9.41481 -0.815266 0.657587
lowerneck -7.21276 -9.28635 -17.7474
upperneck -10.9663 -10.4211 33.4664
head 1.47137 -5.32348 13.5698
rclavicle 1.11319e-014 4.6118e-014
rhumerus 36.584 18.0331 -71.8372
rradius 97.0882
rwrist 30.0704
rhand 23.0657 2.92305
rfingers 7.12502
rthumb 47.3796 -19.5741
lclavicle 1.11319e-014 4.6118e-014
lhumerus 31.2671 -6.79342 83.3976
lradius 101.971
lwrist -17.2575
lhand 18.0747 33.6933
lfingers 7.12502
lthumb 42.7375 58.0314
rfemur -65.4119 5.34084 21.0623
rtibia 43.4961
rfoot -15.8348 -1.62437
rtoes -18.5839
lfemur -66.9331 -1.41782 -5.83732
ltibia 49.0566
lfoot -16.5284 6.48666
ltoes -26.2446
